<svg width="147" height="40" viewBox="0 0 147 40" fill="none" xmlns="http://www.w3.org/2000/svg">
<path d="M0 32.2481L0.248789 31.9095L12.0149 10.2028L12.0397 9.97298L6.85312 0.500551C6.41836 -0.29291 5.19492 -0.0922657 5.05242 0.795991L0 32.2481Z" fill="#0EC0FF"/>
<path d="M0.146851 31.9899L0.334937 31.6332L11.9779 10.1539L6.80404 0.642959C6.37408 -0.142185 5.28212 0.0580034 5.14103 0.936917L0.146851 31.9899Z" fill="#0EC0FF"/>
<g filter="url(#filter0_i_5995_96)">
<path d="M0.146851 31.9899L0.334937 31.6332L11.9779 10.1539L6.80404 0.642959C6.37408 -0.142185 5.28212 0.0580034 5.14103 0.936917L0.146851 31.9899Z" fill="#0EC0FF"/>
</g>
<path d="M15.8209 17.1379L19.6828 13.2925L15.8197 6.12242C15.453 5.4437 14.4292 5.44165 14.0663 6.12242L12.0023 9.94924V10.2751L15.8208 17.1379H15.8209Z" fill="#0784B1"/>
<path d="M15.7519 16.9777L19.5065 13.2392L15.7519 6.2882C15.3955 5.62839 14.5293 5.55923 14.1766 6.22098L12.1018 10.1073L12.0397 10.306L15.7519 16.9777V16.9777Z" fill="#0EC0FF"/>
<g filter="url(#filter1_i_5995_96)">
<path d="M15.7519 16.9777L19.5065 13.2392L15.7519 6.2882C15.3955 5.62839 14.5293 5.55923 14.1766 6.22098L12.1018 10.1073L12.0397 10.306L15.7519 16.9777Z" fill="#0DB5F0"/>
</g>
<path d="M0 32.248L0.112734 32.1377L0.522422 31.9759L15.5783 17.3919L15.7691 16.8871L12.0132 9.92847L0 32.248Z" fill="#0784B1"/>
<path d="M16.3032 39.6031L29.9292 32.2146L26.0381 8.9149C25.9164 8.18593 24.9966 7.89778 24.4598 8.42041L0 32.248L13.5478 39.6025C13.9689 39.8311 14.4432 39.9511 14.9255 39.9512C15.4077 39.9513 15.882 39.8315 16.3032 39.6031" fill="#FB4377"/>
<path d="M29.8071 32.1526L25.9455 9.02987C25.8248 8.30637 25.0598 8.00705 24.5272 8.52581L0.151123 32.2027L13.5502 39.4842C13.9681 39.7111 14.4387 39.8302 14.9174 39.8304C15.396 39.8305 15.8667 39.7116 16.2847 39.4849L29.8072 32.1525L29.8071 32.1526Z" fill="#F32C64"/>
<path d="M16.3031 39.3853C15.8819 39.6137 15.4077 39.7336 14.9254 39.7335C14.4431 39.7334 13.9689 39.6133 13.5478 39.3848L0.109106 32.1361L0.00012207 32.2481L13.5478 39.6025C13.9689 39.8311 14.4432 39.9511 14.9255 39.9512C15.4078 39.9513 15.882 39.8315 16.3033 39.6031L29.9292 32.2146L29.8958 32.015L16.3033 39.3855L16.3031 39.3853Z" fill="#F32C64"/>
<path d="M141.477 30.3711C141.477 29.8711 141.648 29.4531 141.992 29.1172C142.344 28.7812 142.809 28.6133 143.387 28.6133C143.965 28.6133 144.426 28.7812 144.77 29.1172C145.121 29.4531 145.297 29.8711 145.297 30.3711C145.297 30.8711 145.121 31.2891 144.77 31.625C144.426 31.9609 143.965 32.1289 143.387 32.1289C142.809 32.1289 142.344 31.9609 141.992 31.625C141.648 31.2891 141.477 30.8711 141.477 30.3711Z" fill="#F32C64"/>
<path d="M43.5312 32H40.1445V18.7461C40.1445 17.668 40.3633 16.7578 40.8008 16.0156C41.2461 15.2734 41.8789 14.7109 42.6992 14.3281C43.5273 13.9453 44.5273 13.7539 45.6992 13.7539C46.3633 13.7539 47.0078 13.8203 47.6328 13.9531C48.2578 14.0781 48.9023 14.2422 49.5664 14.4453L49.0742 17.1523C48.6445 17.0195 48.1836 16.8945 47.6914 16.7773C47.1992 16.6602 46.6055 16.6016 45.9102 16.6016C45.1289 16.6016 44.5352 16.7852 44.1289 17.1523C43.7305 17.5117 43.5312 18.043 43.5312 18.7461V32ZM46.0508 19.3203V21.7109H38.2578V19.3203H46.0508ZM51.1367 19.3203V32H47.75V19.3203H51.1367ZM57.3359 22.0859V32H53.9609V19.3203H57.1367L57.3359 22.0859ZM61.1562 19.2383L61.0977 22.3672C60.9336 22.3438 60.7344 22.3242 60.5 22.3086C60.2734 22.2852 60.0664 22.2734 59.8789 22.2734C59.4023 22.2734 58.9883 22.3359 58.6367 22.4609C58.293 22.5781 58.0039 22.7539 57.7695 22.9883C57.543 23.2227 57.3711 23.5078 57.2539 23.8438C57.1445 24.1797 57.082 24.5625 57.0664 24.9922L56.3867 24.7812C56.3867 23.9609 56.4688 23.207 56.6328 22.5195C56.7969 21.8242 57.0352 21.2188 57.3477 20.7031C57.668 20.1875 58.0586 19.7891 58.5195 19.5078C58.9805 19.2266 59.5078 19.0859 60.1016 19.0859C60.2891 19.0859 60.4805 19.1016 60.6758 19.1328C60.8711 19.1562 61.0312 19.1914 61.1562 19.2383ZM68.3516 32.2344C67.3672 32.2344 66.4844 32.0781 65.7031 31.7656C64.9219 31.4453 64.2578 31.0039 63.7109 30.4414C63.1719 29.8789 62.7578 29.2266 62.4688 28.4844C62.1797 27.7344 62.0352 26.9375 62.0352 26.0938V25.625C62.0352 24.6641 62.1719 23.7852 62.4453 22.9883C62.7188 22.1914 63.1094 21.5 63.6172 20.9141C64.1328 20.3281 64.7578 19.8789 65.4922 19.5664C66.2266 19.2461 67.0547 19.0859 67.9766 19.0859C68.875 19.0859 69.6719 19.2344 70.3672 19.5312C71.0625 19.8281 71.6445 20.25 72.1133 20.7969C72.5898 21.3438 72.9492 22 73.1914 22.7656C73.4336 23.5234 73.5547 24.3672 73.5547 25.2969V26.7031H63.4766V24.4531H70.2383V24.1953C70.2383 23.7266 70.1523 23.3086 69.9805 22.9414C69.8164 22.5664 69.5664 22.2695 69.2305 22.0508C68.8945 21.832 68.4648 21.7227 67.9414 21.7227C67.4961 21.7227 67.1133 21.8203 66.793 22.0156C66.4727 22.2109 66.2109 22.4844 66.0078 22.8359C65.8125 23.1875 65.6641 23.6016 65.5625 24.0781C65.4688 24.5469 65.4219 25.0625 65.4219 25.625V26.0938C65.4219 26.6016 65.4922 27.0703 65.6328 27.5C65.7812 27.9297 65.9883 28.3008 66.2539 28.6133C66.5273 28.9258 66.8555 29.168 67.2383 29.3398C67.6289 29.5117 68.0703 29.5977 68.5625 29.5977C69.1719 29.5977 69.7383 29.4805 70.2617 29.2461C70.793 29.0039 71.25 28.6406 71.6328 28.1562L73.2734 29.9375C73.0078 30.3203 72.6445 30.6875 72.1836 31.0391C71.7305 31.3906 71.1836 31.6797 70.543 31.9062C69.9023 32.125 69.1719 32.2344 68.3516 32.2344ZM79.0977 28.7188L81.7344 19.3203H83.8789L83.1875 23.0117L80.5508 32H78.7578L79.0977 28.7188ZM77.7617 19.3203L79.6484 28.707L79.8242 32H77.7148L74.5039 19.3203H77.7617ZM86.293 28.5547L88.1328 19.3203H91.4023L88.1914 32H86.0938L86.293 28.5547ZM84.1719 19.3203L86.7969 28.6484L87.1602 32H85.3555L82.7188 23.0234L82.0508 19.3203H84.1719ZM99.9453 29.1406V23.4922C99.9453 23.0859 99.8789 22.7383 99.7461 22.4492C99.6133 22.1523 99.4062 21.9219 99.125 21.7578C98.8516 21.5938 98.4961 21.5117 98.0586 21.5117C97.6836 21.5117 97.3594 21.5781 97.0859 21.7109C96.8125 21.8359 96.6016 22.0195 96.4531 22.2617C96.3047 22.4961 96.2305 22.7734 96.2305 23.0938H92.8555C92.8555 22.5547 92.9805 22.043 93.2305 21.5586C93.4805 21.0742 93.8438 20.6484 94.3203 20.2812C94.7969 19.9062 95.3633 19.6133 96.0195 19.4023C96.6836 19.1914 97.4258 19.0859 98.2461 19.0859C99.2305 19.0859 100.105 19.25 100.871 19.5781C101.637 19.9062 102.238 20.3984 102.676 21.0547C103.121 21.7109 103.344 22.5312 103.344 23.5156V28.9414C103.344 29.6367 103.387 30.207 103.473 30.6523C103.559 31.0898 103.684 31.4727 103.848 31.8008V32H100.438C100.273 31.6562 100.148 31.2266 100.062 30.7109C99.9844 30.1875 99.9453 29.6641 99.9453 29.1406ZM100.391 24.2773L100.414 26.1875H98.5273C98.082 26.1875 97.6953 26.2383 97.3672 26.3398C97.0391 26.4414 96.7695 26.5859 96.5586 26.7734C96.3477 26.9531 96.1914 27.1641 96.0898 27.4062C95.9961 27.6484 95.9492 27.9141 95.9492 28.2031C95.9492 28.4922 96.0156 28.7539 96.1484 28.9883C96.2812 29.2148 96.4727 29.3945 96.7227 29.5273C96.9727 29.6523 97.2656 29.7148 97.6016 29.7148C98.1094 29.7148 98.5508 29.6133 98.9258 29.4102C99.3008 29.207 99.5898 28.957 99.793 28.6602C100.004 28.3633 100.113 28.082 100.121 27.8164L101.012 29.2461C100.887 29.5664 100.715 29.8984 100.496 30.2422C100.285 30.5859 100.016 30.9102 99.6875 31.2148C99.3594 31.5117 98.9648 31.7578 98.5039 31.9531C98.043 32.1406 97.4961 32.2344 96.8633 32.2344C96.0586 32.2344 95.3281 32.0742 94.6719 31.7539C94.0234 31.4258 93.5078 30.9766 93.125 30.4062C92.75 29.8281 92.5625 29.1719 92.5625 28.4375C92.5625 27.7734 92.6875 27.1836 92.9375 26.668C93.1875 26.1523 93.5547 25.7188 94.0391 25.3672C94.5312 25.0078 95.1445 24.7383 95.8789 24.5586C96.6133 24.3711 97.4648 24.2773 98.4336 24.2773H100.391ZM109.508 14V32H106.121V14H109.508ZM115.859 14V32H112.473V14H115.859ZM124.484 32.2344C123.5 32.2344 122.617 32.0781 121.836 31.7656C121.055 31.4453 120.391 31.0039 119.844 30.4414C119.305 29.8789 118.891 29.2266 118.602 28.4844C118.312 27.7344 118.168 26.9375 118.168 26.0938V25.625C118.168 24.6641 118.305 23.7852 118.578 22.9883C118.852 22.1914 119.242 21.5 119.75 20.9141C120.266 20.3281 120.891 19.8789 121.625 19.5664C122.359 19.2461 123.188 19.0859 124.109 19.0859C125.008 19.0859 125.805 19.2344 126.5 19.5312C127.195 19.8281 127.777 20.25 128.246 20.7969C128.723 21.3438 129.082 22 129.324 22.7656C129.566 23.5234 129.688 24.3672 129.688 25.2969V26.7031H119.609V24.4531H126.371V24.1953C126.371 23.7266 126.285 23.3086 126.113 22.9414C125.949 22.5664 125.699 22.2695 125.363 22.0508C125.027 21.832 124.598 21.7227 124.074 21.7227C123.629 21.7227 123.246 21.8203 122.926 22.0156C122.605 22.2109 122.344 22.4844 122.141 22.8359C121.945 23.1875 121.797 23.6016 121.695 24.0781C121.602 24.5469 121.555 25.0625 121.555 25.625V26.0938C121.555 26.6016 121.625 27.0703 121.766 27.5C121.914 27.9297 122.121 28.3008 122.387 28.6133C122.66 28.9258 122.988 29.168 123.371 29.3398C123.762 29.5117 124.203 29.5977 124.695 29.5977C125.305 29.5977 125.871 29.4805 126.395 29.2461C126.926 29.0039 127.383 28.6406 127.766 28.1562L129.406 29.9375C129.141 30.3203 128.777 30.6875 128.316 31.0391C127.863 31.3906 127.316 31.6797 126.676 31.9062C126.035 32.125 125.305 32.2344 124.484 32.2344ZM137.82 19.3203V21.7109H130.438V19.3203H137.82ZM132.266 16.1914H135.641V28.1797C135.641 28.5469 135.688 28.8281 135.781 29.0234C135.883 29.2188 136.031 29.3555 136.227 29.4336C136.422 29.5039 136.668 29.5391 136.965 29.5391C137.176 29.5391 137.363 29.5312 137.527 29.5156C137.699 29.4922 137.844 29.4688 137.961 29.4453L137.973 31.9297C137.684 32.0234 137.371 32.0977 137.035 32.1523C136.699 32.207 136.328 32.2344 135.922 32.2344C135.18 32.2344 134.531 32.1133 133.977 31.8711C133.43 31.6211 133.008 31.2227 132.711 30.6758C132.414 30.1289 132.266 29.4102 132.266 28.5195V16.1914Z" fill="white"/>
<defs>
<filter id="filter0_i_5995_96" x="0.146851" y="0.152283" width="11.8311" height="31.8376" filterUnits="userSpaceOnUse" color-interpolation-filters="sRGB">
<feFlood flood-opacity="0" result="BackgroundImageFix"/>
<feBlend mode="normal" in="SourceGraphic" in2="BackgroundImageFix" result="shape"/>
<feColorMatrix in="SourceAlpha" type="matrix" values="0 0 0 0 0 0 0 0 0 0 0 0 0 0 0 0 0 0 127 0" result="hardAlpha"/>
<feOffset/>
<feGaussianBlur stdDeviation="124.619"/>
<feComposite in2="hardAlpha" operator="arithmetic" k2="-1" k3="1"/>
<feColorMatrix type="matrix" values="0 0 0 0 0 0 0 0 0 0 0 0 0 0 0 0 0 0 0.06 0"/>
<feBlend mode="normal" in2="shape" result="effect1_innerShadow_5995_96"/>
</filter>
<filter id="filter1_i_5995_96" x="12.0397" y="5.75769" width="7.4668" height="11.22" filterUnits="userSpaceOnUse" color-interpolation-filters="sRGB">
<feFlood flood-opacity="0" result="BackgroundImageFix"/>
<feBlend mode="normal" in="SourceGraphic" in2="BackgroundImageFix" result="shape"/>
<feColorMatrix in="SourceAlpha" type="matrix" values="0 0 0 0 0 0 0 0 0 0 0 0 0 0 0 0 0 0 127 0" result="hardAlpha"/>
<feOffset dx="7.12109" dy="-64.0898"/>
<feGaussianBlur stdDeviation="24.9238"/>
<feComposite in2="hardAlpha" operator="arithmetic" k2="-1" k3="1"/>
<feColorMatrix type="matrix" values="0 0 0 0 0 0 0 0 0 0 0 0 0 0 0 0 0 0 0.09 0"/>
<feBlend mode="normal" in2="shape" result="effect1_innerShadow_5995_96"/>
</filter>
</defs>
</svg>
